<?xml version="1.0" standalone="no"?>
<!DOCTYPE svg PUBLIC "-//W3C//DTD SVG 20010904//EN"
 "http://www.w3.org/TR/2001/REC-SVG-20010904/DTD/svg10.dtd">
<svg version="1.0" xmlns="http://www.w3.org/2000/svg"
 width="512.000000pt" height="512.000000pt" viewBox="0 0 512.000000 512.000000"
 preserveAspectRatio="xMidYMid meet">

<g transform="translate(0.000000,512.000000) scale(0.100000,-0.100000)"
fill="#000000" stroke="none">
<path d="M2475 4940 c-376 -40 -740 -168 -1035 -364 -110 -74 -221 -161 -234
-184 -15 -27 -8 -73 15 -98 28 -30 63 -30 149 -3 249 78 654 79 945 4 406
-106 764 -367 999 -728 107 -163 196 -383 237 -585 36 -174 36 -558 0 -654 -6
-17 -9 -16 -29 11 -59 81 -232 179 -362 207 -90 19 -279 14 -380 -11 -182 -44
-337 -164 -419 -322 l-42 -83 -57 0 c-114 0 -261 -55 -343 -128 -53 -47 -102
-135 -118 -210 -6 -29 -11 -105 -11 -168 0 -114 0 -116 29 -145 l29 -29 623 0
622 0 -24 -26 c-41 -44 -170 -148 -253 -204 -100 -67 -294 -161 -413 -199
-185 -60 -294 -76 -538 -76 -189 0 -236 3 -330 22 -179 37 -347 98 -493 181
-104 59 -158 55 -183 -16 -14 -40 -4 -57 96 -173 86 -100 220 -224 340 -314
706 -531 1678 -624 2472 -236 250 122 426 245 621 436 214 208 350 393 481
655 335 672 333 1458 -3 2125 -135 266 -244 415 -460 630 -208 207 -371 323
-631 450 -226 111 -456 183 -705 220 -122 19 -478 28 -595 15z m431 -170 c952
-77 1753 -758 1978 -1681 47 -193 61 -317 60 -539 -1 -165 -5 -232 -23 -340
-78 -461 -278 -859 -598 -1191 -345 -357 -778 -578 -1283 -656 -158 -24 -472
-24 -630 0 -334 51 -638 167 -906 346 -134 89 -191 135 -159 127 160 -43 344
-66 527 -66 528 0 1002 202 1361 580 l95 100 391 0 c264 0 398 4 414 11 44 20
49 45 46 211 l-4 154 -38 76 c-41 85 -90 133 -172 173 -58 29 -170 55 -236 55
l-47 0 18 72 c42 165 53 282 47 498 -4 168 -10 227 -31 326 -45 214 -133 433
-245 614 -205 329 -537 607 -900 750 -223 89 -393 121 -676 129 l-210 6 85 41
c343 166 733 236 1136 204z m172 -2390 c206 -26 324 -116 402 -307 43 -106 52
-113 159 -113 264 0 359 -66 369 -256 l5 -84 -1022 0 -1021 0 0 75 c0 90 19
136 80 188 56 47 133 70 267 76 133 7 139 11 173 113 53 165 205 282 398 307
95 12 99 12 190 1z"/>
<path d="M4280 3764 c-25 -20 -53 -42 -63 -49 -17 -12 -13 -19 42 -96 219
-306 341 -678 344 -1054 2 -171 -9 -253 -49 -399 -14 -48 -24 -89 -22 -90 2
-2 37 -14 78 -29 55 -19 76 -23 82 -14 4 6 17 48 29 92 111 412 56 878 -155
1310 -78 158 -211 365 -234 365 -4 0 -27 -16 -52 -36z"/>
<path d="M4437 1875 l-37 -75 80 -40 c44 -22 83 -40 88 -40 8 0 72 124 72 140
0 8 -149 90 -163 90 -1 0 -19 -34 -40 -75z"/>
<path d="M2159 3981 c-23 -24 -29 -38 -29 -73 0 -57 -41 -139 -88 -178 -41
-34 -110 -60 -160 -60 -24 0 -42 -8 -63 -29 -31 -31 -36 -59 -17 -94 17 -34
37 -44 96 -51 121 -14 213 -101 228 -214 13 -97 32 -122 92 -122 54 0 78 29
91 109 21 128 108 213 233 227 49 6 63 12 84 37 20 24 24 38 20 61 -8 42 -49
76 -90 76 -48 0 -117 26 -159 61 -48 39 -76 95 -88 173 -7 45 -16 67 -35 84
-36 31 -79 29 -115 -7z m100 -437 l-41 -42 -39 40 -39 41 38 42 37 42 43 -41
42 -40 -41 -42z"/>
<path d="M1197 3754 c-4 -4 -7 -45 -7 -91 l0 -83 90 0 91 0 -3 88 -3 87 -80 3
c-45 1 -84 0 -88 -4z"/>
<path d="M725 3316 c-85 -17 -141 -37 -199 -71 -48 -28 -130 -110 -147 -148
-10 -21 -20 -25 -73 -29 -119 -10 -218 -78 -271 -185 -24 -49 -29 -74 -33
-160 l-5 -102 31 -30 30 -31 796 0 795 0 28 24 c27 24 28 26 28 133 0 95 -3
115 -27 164 -52 112 -147 178 -269 187 -68 5 -69 5 -93 46 -34 59 -118 133
-179 160 -108 48 -289 66 -412 42z m330 -195 c68 -30 93 -56 126 -128 38 -83
55 -93 154 -93 94 0 138 -18 172 -69 13 -19 23 -49 23 -67 l0 -34 -681 0 -681
0 7 33 c20 92 86 137 204 137 40 0 81 5 92 11 11 6 33 39 49 73 34 76 75 111
169 143 58 21 81 23 191 20 103 -3 134 -7 175 -26z"/>
<path d="M2640 2985 l0 -85 90 0 90 0 0 85 0 85 -90 0 -90 0 0 -85z"/>
<path d="M369 2191 c-21 -21 -29 -39 -29 -64 0 -19 -7 -54 -15 -78 -34 -95
-107 -153 -215 -167 -50 -7 -68 -15 -87 -36 -56 -65 -2 -146 97 -146 67 0 155
-61 191 -131 10 -21 23 -66 28 -99 10 -74 34 -104 86 -104 53 0 81 33 89 103
14 124 101 213 226 231 76 11 110 38 110 86 0 18 -3 40 -6 49 -8 21 -56 45
-90 45 -49 0 -105 23 -150 63 -53 46 -70 77 -84 149 -6 29 -13 63 -16 75 -5
25 -50 53 -84 53 -12 0 -35 -13 -51 -29z m99 -360 l40 -39 -42 -41 -42 -41
-40 41 -41 41 41 39 c23 21 41 39 42 39 0 0 19 -17 42 -39z"/>
<path d="M1280 2045 l0 -85 85 0 85 0 0 85 0 85 -85 0 -85 0 0 -85z"/>
<path d="M170 855 l0 -85 85 0 85 0 0 85 0 85 -85 0 -85 0 0 -85z"/>
<path d="M4350 340 l0 -90 85 0 85 0 0 90 0 90 -85 0 -85 0 0 -90z"/>
</g>
</svg>
