<svg xmlns="http://www.w3.org/2000/svg" width="512" height="512" viewBox="0 0 512 512" version="1.1"><path d="M 250.174 15.314 C 247.044 18.647, 246.788 57.281, 249.871 61.089 C 259.252 72.674, 269.257 42.081, 263.538 19.297 C 261.990 13.127, 254.364 10.855, 250.174 15.314 M 155 38.294 C 148.445 41.610, 148.809 43.841, 161.187 76.255 C 165.029 86.314, 170.667 89.176, 175.826 83.686 C 179.341 79.943, 177.480 72.409, 165.458 41.713 C 164.030 38.068, 158.816 36.364, 155 38.294 M 349.365 38.147 C 346.396 39.615, 333 72.824, 333 78.714 C 333 84.697, 341.152 88.206, 345.862 84.250 C 347.918 82.524, 361 48.483, 361 44.860 C 361 40.246, 353.672 36.018, 349.365 38.147 M 73.500 94.155 C 65.951 98.284, 67.003 101.553, 81.469 118.924 C 96.767 137.293, 98.837 138.625, 104.504 133.750 C 107.527 131.150, 108.168 126.005, 105.813 123.247 C 104.993 122.286, 99.468 115.650, 93.536 108.500 C 80.610 92.920, 78.509 91.415, 73.500 94.155 M 430.696 94.111 C 426.282 96.678, 404 125.023, 404 128.070 C 404 136.269, 412.563 138.395, 418.824 131.750 C 431.295 118.516, 441.964 104.442, 441.982 101.205 C 442.015 95.200, 435.674 91.214, 430.696 94.111 M 241 110.674 C 161.944 118.673, 98.786 181.627, 92.392 258.800 C 91.807 265.859, 91.464 267.005, 90.102 266.461 C 20.562 238.722, -33.578 333.066, 24.933 380.025 C 45.531 396.555, 95.631 401.492, 95.218 386.950 C 95.021 380.036, 92.977 379.276, 73.179 378.753 C 40.191 377.883, 22.126 364.958, 16.447 338.163 C 4.488 281.737, 83.575 253.697, 110.771 304.721 C 115.791 314.140, 119.488 314.541, 128.070 306.596 C 148.859 287.349, 180.332 302.957, 177.555 331.136 C 176.309 343.788, 172.357 343, 237.046 343 C 292.183 343, 292.183 343, 286.694 347.471 C 279.869 353.031, 272.769 361.074, 269.882 366.516 C 267.686 370.655, 267.686 370.655, 261.093 367.302 C 241.469 357.320, 220.419 359.680, 201.527 373.979 C 194.894 379, 194.894 379, 155.381 379 C 112.630 379, 112.823 378.976, 110.966 384.602 C 107.854 394.033, 110.792 394.777, 151.633 394.900 C 184.766 395, 184.766 395, 183.250 399.250 C 182.416 401.587, 181.511 406.988, 181.238 411.250 C 180.743 419, 180.743 419, 163.921 419 C 154.668 419, 144.714 419.506, 141.799 420.125 C 103.364 428.287, 97.250 480.486, 132.759 497.307 C 140.813 501.122, 342.899 503.007, 361.978 499.445 C 417.884 489.007, 448.778 423.805, 422.565 371.574 C 418.262 363, 418.262 363, 434.184 363 C 474.774 363, 502.346 343.476, 510.444 309 C 516.020 285.260, 506.516 252.845, 495.047 256.485 C 489.332 258.299, 488.955 263.282, 493.568 276 C 502.374 300.271, 490.389 329.609, 466.767 341.612 C 452.940 348.637, 407.450 349.839, 398.497 343.415 C 388.813 336.468, 376.233 331.295, 363.566 329.051 C 359.850 328.393, 334.863 328, 296.705 328 C 229.173 328, 231.892 328.535, 239.568 316.770 C 244.776 308.788, 246.083 308.539, 284.489 308.199 C 325.799 307.834, 322.967 308.877, 322.716 294.132 C 322.191 263.287, 353.998 249.353, 376.890 270.399 C 380.241 273.480, 383.640 276, 384.444 276 C 387.965 276, 390.951 273.448, 393.642 268.139 C 407.101 241.585, 442.296 231.005, 468.784 245.549 C 478.517 250.893, 485 249.294, 485 241.550 C 485 228.026, 444.482 218.365, 421 226.290 C 416.875 227.682, 413.464 228.749, 413.420 228.661 C 413.376 228.572, 412.098 224.900, 410.580 220.500 C 401.929 195.418, 385.021 169, 377.620 169 C 368.527 169, 368.009 176.324, 376.286 187.852 C 383.638 198.091, 389.654 209.308, 394.417 221.661 C 400.123 236.459, 400.118 236.545, 393.258 243.522 C 390.024 246.810, 386.434 250.844, 385.279 252.486 C 383.315 255.281, 383.062 255.369, 381.340 253.853 C 355.661 231.246, 307.255 254.266, 307.024 289.196 C 307 292.892, 307 292.892, 276.750 293.196 C 248.128 293.484, 246.246 293.617, 241.783 295.679 C 231.474 300.442, 222.702 311.919, 221.170 322.650 C 219.975 331.021, 193.528 330.673, 192.741 322.277 C 189.799 290.898, 152.167 272.190, 125.724 288.960 C 121.137 291.869, 121.137 291.869, 118.668 288.631 C 117.309 286.850, 114.101 283.325, 111.537 280.798 C 106.420 275.753, 106.258 264.724, 110.980 242.917 C 133.619 138.362, 258.847 90.943, 343.643 154.817 C 354.460 162.965, 355.040 163.231, 358.993 161.853 C 366.030 159.399, 365.924 152.789, 358.750 146.696 C 328.789 121.251, 280.988 106.628, 241 110.674 M 19.635 173.073 C 12.114 178.988, 15.591 183.422, 37.530 195.890 C 55.392 206.041, 55.958 206.196, 60.077 202.077 C 66.611 195.543, 64.379 192.785, 42.380 180.212 C 25.100 170.337, 23.680 169.891, 19.635 173.073 M 467.574 180.957 C 447.427 192.702, 444.475 196.595, 451.140 202.626 C 454.873 206.005, 458.648 204.796, 476.095 194.637 C 496.050 183.018, 498.281 180.127, 492.077 173.923 C 487.801 169.647, 486.170 170.115, 467.574 180.957 M 328.965 344.428 C 306.277 349.171, 288.425 362.280, 279.910 380.450 C 274.014 393.032, 271.938 393.594, 261.198 385.514 C 232.683 364.063, 196.270 383.103, 196.720 419.230 C 196.927 435.827, 198.395 435, 168.731 435 C 142.402 435, 139.926 435.463, 133.010 441.681 C 119.921 453.449, 122.480 473.858, 138.130 482.526 C 145.704 486.721, 349.214 487.318, 363.500 483.187 C 453.109 457.277, 420.272 325.342, 328.965 344.428" stroke="none" fill="#050506" fill-rule="evenodd"/><path d="M 230.659 128.005 C 162.642 140.386, 114.358 193.862, 107.999 263.852 C 106.877 276.204, 106.877 276.204, 111.537 280.798 C 114.101 283.325, 117.309 286.850, 118.668 288.631 C 121.137 291.869, 121.137 291.869, 125.724 288.960 C 152.167 272.190, 189.799 290.898, 192.741 322.277 C 193.513 330.507, 219.970 331.060, 221.139 322.871 C 224.443 299.728, 235.914 293.606, 276.750 293.196 C 307 292.892, 307 292.892, 307.024 289.196 C 307.255 254.266, 355.661 231.246, 381.340 253.853 C 383.062 255.369, 383.315 255.281, 385.279 252.486 C 386.434 250.844, 390.024 246.810, 393.258 243.522 C 400.118 236.545, 400.123 236.459, 394.417 221.661 C 389.654 209.308, 383.638 198.091, 376.286 187.852 C 369.858 178.899, 368.903 175.861, 371.441 172.441 C 374.079 168.887, 363.931 159.713, 359.439 161.590 C 355.219 163.353, 354.655 163.112, 343.643 154.817 C 313.004 131.737, 268.358 121.143, 230.659 128.005 M 427.688 240.502 C 414.709 244.069, 399.643 256.300, 393.642 268.139 C 390.951 273.448, 387.965 276, 384.444 276 C 383.640 276, 380.241 273.480, 376.890 270.399 C 353.998 249.353, 322.191 263.287, 322.716 294.132 C 322.967 308.877, 325.799 307.834, 284.489 308.199 C 246.083 308.539, 244.776 308.788, 239.568 316.770 C 231.892 328.535, 229.173 328, 296.705 328 C 334.863 328, 359.850 328.393, 363.566 329.051 C 376.233 331.295, 388.813 336.468, 398.497 343.415 C 407.450 349.839, 452.940 348.637, 466.767 341.612 C 490.389 329.609, 502.374 300.271, 493.568 276 C 489.843 265.730, 489.429 262.521, 491.434 259.460 C 494.080 255.422, 485.901 245.332, 481.971 247.786 C 478.794 249.770, 475.433 249.200, 468.784 245.549 C 457.302 239.245, 439.994 237.119, 427.688 240.502 M 50.100 280.571 C -8.896 300.665, 8.925 377.061, 73 378.739 C 91.694 379.229, 95 380.196, 95 385.174 C 95 388.878, 109.832 387.780, 111.157 383.979 C 112.873 379.058, 113.388 379, 155.381 379 C 194.894 379, 194.894 379, 201.527 373.979 C 220.419 359.680, 241.469 357.320, 261.093 367.302 C 267.686 370.655, 267.686 370.655, 269.882 366.516 C 272.769 361.074, 279.869 353.031, 286.694 347.471 C 292.183 343, 292.183 343, 237.046 343 C 172.357 343, 176.309 343.788, 177.555 331.136 C 180.332 302.957, 148.859 287.349, 128.070 306.596 C 119.488 314.541, 115.791 314.140, 110.771 304.721 C 98.816 282.291, 74.024 272.423, 50.100 280.571 M 328.965 344.428 C 306.277 349.171, 288.425 362.280, 279.910 380.450 C 274.014 393.032, 271.938 393.594, 261.198 385.514 C 232.683 364.063, 196.270 383.103, 196.720 419.230 C 196.927 435.827, 198.395 435, 168.731 435 C 142.402 435, 139.926 435.463, 133.010 441.681 C 119.921 453.449, 122.480 473.858, 138.130 482.526 C 145.704 486.721, 349.214 487.318, 363.500 483.187 C 453.109 457.277, 420.272 325.342, 328.965 344.428" stroke="none" fill="#c2ddfb" fill-rule="evenodd"/></svg>