<svg xmlns="http://www.w3.org/2000/svg" width="300" height="300" viewBox="0 0 300 300" version="1.1"><path d="M 133.762 0.707 C 135.006 0.946, 136.806 0.937, 137.762 0.687 C 138.718 0.437, 137.700 0.241, 135.500 0.252 C 133.300 0.263, 132.518 0.468, 133.762 0.707 M 162.762 0.707 C 164.006 0.946, 165.806 0.937, 166.762 0.687 C 167.718 0.437, 166.700 0.241, 164.500 0.252 C 162.300 0.263, 161.518 0.468, 162.762 0.707 M 125.750 1.662 C 126.438 1.940, 127.563 1.940, 128.250 1.662 C 128.938 1.385, 128.375 1.158, 127 1.158 C 125.625 1.158, 125.063 1.385, 125.750 1.662 M 171.750 1.662 C 172.438 1.940, 173.563 1.940, 174.250 1.662 C 174.938 1.385, 174.375 1.158, 173 1.158 C 171.625 1.158, 171.063 1.385, 171.750 1.662 M 92 11 C 91.175 11.533, 90.950 11.969, 91.500 11.969 C 92.050 11.969, 93.175 11.533, 94 11 C 94.825 10.467, 95.050 10.031, 94.500 10.031 C 93.950 10.031, 92.825 10.467, 92 11 M 206 11 C 206.825 11.533, 207.950 11.969, 208.500 11.969 C 209.050 11.969, 208.825 11.533, 208 11 C 207.175 10.467, 206.050 10.031, 205.500 10.031 C 204.950 10.031, 205.175 10.467, 206 11 M 212.083 13.377 C 213.106 14.303, 221 17.989, 221 17.541 C 221 16.972, 213.453 13, 212.373 13 C 211.985 13, 211.854 13.170, 212.083 13.377 M 81.750 15.572 C 77.873 17.675, 78.312 18.401, 82.250 16.399 C 86.020 14.481, 86.687 13.985, 85.417 14.040 C 84.912 14.062, 83.263 14.751, 81.750 15.572 M 73.441 20.555 C 71.577 22.049, 71.589 22.067, 73.750 21.020 C 74.987 20.420, 76 19.720, 76 19.465 C 76 18.700, 75.481 18.921, 73.441 20.555 M 224 19.430 C 224 19.705, 224.900 20.411, 226 21 C 227.100 21.589, 228 21.845, 228 21.570 C 228 21.295, 227.100 20.589, 226 20 C 224.900 19.411, 224 19.155, 224 19.430 M 66.732 24.536 C 64.679 25.931, 63 27.287, 63 27.550 C 63 27.813, 64.800 26.837, 67 25.381 C 70.493 23.070, 71.674 22, 70.732 22 C 70.585 22, 68.785 23.141, 66.732 24.536 M 229 22.311 C 229 22.544, 230.912 23.996, 233.250 25.537 C 235.588 27.079, 236.972 27.701, 236.327 26.920 C 235.086 25.418, 229 21.589, 229 22.311 M 241.500 31.101 C 246.671 35.332, 264.668 53.329, 268.899 58.500 C 271.891 62.157, 271.978 62.200, 269.908 59 C 266.973 54.461, 245.539 33.027, 241 30.092 C 237.800 28.022, 237.843 28.109, 241.500 31.101 M 55.405 33.250 L 53.500 35.500 55.750 33.595 C 57.864 31.805, 58.455 31, 57.655 31 C 57.465 31, 56.453 32.013, 55.405 33.250 M 43.479 44.250 L 34.500 53.500 43.750 44.521 C 52.341 36.181, 53.455 35, 52.729 35 C 52.580 35, 48.418 39.163, 43.479 44.250 M 32.377 56.250 C 29.424 59.619, 27.699 62, 28.210 62 C 28.460 62, 30.112 60.200, 31.880 58 C 35.312 53.729, 35.660 52.503, 32.377 56.250 M 25.232 65.750 C 22.643 69.489, 21.802 71, 22.308 71 C 22.542 71, 23.925 69.200, 25.381 67 C 28.340 62.529, 28.211 61.448, 25.232 65.750 M 58 63.298 C 58 63.462, 73.976 84.948, 93.501 111.044 C 113.027 137.140, 128.890 158.795, 128.751 159.165 C 128.613 159.535, 112.638 176.961, 93.250 197.889 C 73.862 218.817, 58 236.179, 58 236.470 C 58 236.762, 61.487 236.989, 65.750 236.976 L 73.500 236.951 104 203.897 C 120.775 185.717, 135.004 170.421, 135.621 169.906 C 136.396 169.258, 144.568 179.446, 162.121 202.943 L 187.500 236.917 214.750 236.958 C 229.738 236.981, 241.985 236.662, 241.966 236.250 C 241.947 235.838, 225.076 213.010, 204.475 185.522 L 167.019 135.544 171.852 130.522 C 174.510 127.760, 188.078 113.125, 202.004 98 C 215.930 82.875, 228.917 68.813, 230.865 66.750 L 234.406 63 226.268 63 L 218.131 63 189.436 94 C 173.653 111.050, 160.402 125, 159.988 125 C 159.573 125, 148.779 111.050, 136 94 L 112.765 63 85.383 63 C 70.322 63, 58 63.134, 58 63.298 M 274.463 66.750 C 276.004 69.088, 277.456 71, 277.689 71 C 278.411 71, 274.582 64.914, 273.080 63.673 C 272.299 63.028, 272.921 64.412, 274.463 66.750 M 20 74 C 19.411 75.100, 19.155 76, 19.430 76 C 19.705 76, 20.411 75.100, 21 74 C 21.589 72.900, 21.845 72, 21.570 72 C 21.295 72, 20.589 72.900, 20 74 M 279 74 C 279.589 75.100, 280.295 76, 280.570 76 C 280.845 76, 280.589 75.100, 280 74 C 279.411 72.900, 278.705 72, 278.430 72 C 278.155 72, 278.411 72.900, 279 74 M 82.700 76.359 C 83.140 77.106, 108.250 110.844, 138.500 151.330 L 193.500 224.943 205.833 224.971 C 213.403 224.989, 218.038 224.624, 217.833 224.027 C 217.650 223.492, 192.600 189.742, 162.167 149.027 L 106.835 75 94.368 75 C 84.135 75, 82.044 75.244, 82.700 76.359 M 15.452 82.093 C 14.572 83.794, 14.030 85.363, 14.247 85.580 C 14.464 85.797, 15.390 84.406, 16.305 82.487 C 18.361 78.175, 17.649 77.845, 15.452 82.093 M 284.202 83.478 C 285.398 85.941, 286.549 87.785, 286.758 87.575 C 287.211 87.123, 283.170 79, 282.493 79 C 282.236 79, 283.005 81.015, 284.202 83.478 M 10.624 92.539 C 9.659 95.053, 9.943 95.702, 11.122 93.675 C 11.706 92.671, 11.973 91.639, 11.715 91.382 C 11.458 91.124, 10.966 91.645, 10.624 92.539 M 288.031 91.500 C 288.031 92.050, 288.467 93.175, 289 94 C 289.533 94.825, 289.969 95.050, 289.969 94.500 C 289.969 93.950, 289.533 92.825, 289 92 C 288.467 91.175, 288.031 90.950, 288.031 91.500 M 1.195 127.500 C 1.215 129.150, 1.439 129.704, 1.693 128.731 C 1.947 127.758, 1.930 126.408, 1.656 125.731 C 1.382 125.054, 1.175 125.850, 1.195 127.500 M 298.158 127 C 298.158 128.375, 298.385 128.938, 298.662 128.250 C 298.940 127.563, 298.940 126.438, 298.662 125.750 C 298.385 125.063, 298.158 125.625, 298.158 127 M 0.252 135.500 C 0.263 137.700, 0.468 138.482, 0.707 137.238 C 0.946 135.994, 0.937 134.194, 0.687 133.238 C 0.437 132.282, 0.241 133.300, 0.252 135.500 M 299.252 135.500 C 299.263 137.700, 299.468 138.482, 299.707 137.238 C 299.946 135.994, 299.937 134.194, 299.687 133.238 C 299.437 132.282, 299.241 133.300, 299.252 135.500 M 0.252 164.500 C 0.263 166.700, 0.468 167.482, 0.707 166.238 C 0.946 164.994, 0.937 163.194, 0.687 162.238 C 0.437 161.282, 0.241 162.300, 0.252 164.500 M 299.252 164.500 C 299.263 166.700, 299.468 167.482, 299.707 166.238 C 299.946 164.994, 299.937 163.194, 299.687 162.238 C 299.437 161.282, 299.241 162.300, 299.252 164.500 M 1.195 172.500 C 1.215 174.150, 1.439 174.704, 1.693 173.731 C 1.947 172.758, 1.930 171.408, 1.656 170.731 C 1.382 170.054, 1.175 170.850, 1.195 172.500 M 298.158 173 C 298.158 174.375, 298.385 174.938, 298.662 174.250 C 298.940 173.563, 298.940 172.438, 298.662 171.750 C 298.385 171.063, 298.158 171.625, 298.158 173 M 10.031 205.500 C 10.031 206.050, 10.467 207.175, 11 208 C 11.533 208.825, 11.969 209.050, 11.969 208.500 C 11.969 207.950, 11.533 206.825, 11 206 C 10.467 205.175, 10.031 204.950, 10.031 205.500 M 288.624 206.539 C 287.659 209.053, 287.943 209.702, 289.122 207.675 C 289.706 206.671, 289.973 205.639, 289.715 205.382 C 289.458 205.124, 288.966 205.645, 288.624 206.539 M 284.202 216.522 C 283.005 218.985, 282.236 221, 282.493 221 C 283.170 221, 287.211 212.877, 286.758 212.425 C 286.549 212.215, 285.398 214.059, 284.202 216.522 M 14 214.383 C 14 215.456, 16.975 221, 17.551 221 C 17.826 221, 17.308 219.537, 16.399 217.750 C 14.542 214.100, 14 213.339, 14 214.383 M 20 226 C 20.589 227.100, 21.295 228, 21.570 228 C 21.845 228, 21.589 227.100, 21 226 C 20.411 224.900, 19.705 224, 19.430 224 C 19.155 224, 19.411 224.900, 20 226 M 279 226 C 278.411 227.100, 278.155 228, 278.430 228 C 278.705 228, 279.411 227.100, 280 226 C 280.589 224.900, 280.845 224, 280.570 224 C 280.295 224, 279.589 224.900, 279 226 M 23.693 232.077 C 24.687 233.769, 26.139 235.682, 26.920 236.327 C 27.701 236.972, 27.079 235.588, 25.537 233.250 C 22.300 228.342, 21.024 227.530, 23.693 232.077 M 274.463 233.250 C 272.921 235.588, 272.299 236.972, 273.080 236.327 C 274.582 235.086, 278.411 229, 277.689 229 C 277.456 229, 276.004 230.912, 274.463 233.250 M 267.957 242.250 C 266.100 244.588, 265.370 245.865, 266.337 245.089 C 268.157 243.627, 272.442 238, 271.735 238 C 271.515 238, 269.815 239.912, 267.957 242.250 M 32.500 244 C 33.495 245.100, 34.535 246, 34.810 246 C 35.085 246, 34.495 245.100, 33.500 244 C 32.505 242.900, 31.465 242, 31.190 242 C 30.915 242, 31.505 242.900, 32.500 244 M 43.500 256 C 48.427 260.950, 52.683 265, 52.958 265 C 53.233 265, 49.427 260.950, 44.500 256 C 39.573 251.050, 35.317 247, 35.042 247 C 34.767 247, 38.573 251.050, 43.500 256 M 255.479 256.250 L 246.500 265.500 255.750 256.521 C 264.341 248.181, 265.455 247, 264.729 247 C 264.580 247, 260.418 251.162, 255.479 256.250 M 55.500 267 C 56.495 268.100, 57.535 269, 57.810 269 C 58.085 269, 57.495 268.100, 56.500 267 C 55.505 265.900, 54.465 265, 54.190 265 C 53.915 265, 54.505 265.900, 55.500 267 M 243.405 267.250 L 241.500 269.500 243.750 267.595 C 244.988 266.547, 246 265.535, 246 265.345 C 246 264.545, 245.195 265.136, 243.405 267.250 M 63.673 273.080 C 64.914 274.582, 71 278.411, 71 277.689 C 71 277.456, 69.088 276.004, 66.750 274.463 C 64.412 272.921, 63.028 272.299, 63.673 273.080 M 233.203 274.429 C 228.558 277.713, 227.905 278.652, 231.827 276.406 C 233.657 275.357, 235.624 273.938, 236.199 273.250 C 237.677 271.483, 236.984 271.756, 233.203 274.429 M 72 278.430 C 72 278.705, 72.900 279.411, 74 280 C 75.100 280.589, 76 280.845, 76 280.570 C 76 280.295, 75.100 279.589, 74 279 C 72.900 278.411, 72 278.155, 72 278.430 M 225.441 279.555 C 223.577 281.049, 223.589 281.067, 225.750 280.020 C 226.988 279.420, 228 278.720, 228 278.465 C 228 277.700, 227.481 277.921, 225.441 279.555 M 79 282.490 C 79 283.175, 85.123 286.210, 85.580 285.753 C 85.797 285.536, 84.406 284.610, 82.487 283.695 C 80.569 282.781, 79 282.239, 79 282.490 M 217 284 C 215.075 285.054, 213.860 285.935, 214.300 285.958 C 215.359 286.014, 221 283.081, 221 282.474 C 221 281.820, 220.941 281.842, 217 284 M 92 289 C 92.825 289.533, 93.950 289.969, 94.500 289.969 C 95.050 289.969, 94.825 289.533, 94 289 C 93.175 288.467, 92.050 288.031, 91.500 288.031 C 90.950 288.031, 91.175 288.467, 92 289 M 206 289 C 205.175 289.533, 204.950 289.969, 205.500 289.969 C 206.050 289.969, 207.175 289.533, 208 289 C 208.825 288.467, 209.050 288.031, 208.500 288.031 C 207.950 288.031, 206.825 288.467, 206 289 M 126.269 298.693 C 127.242 298.947, 128.592 298.930, 129.269 298.656 C 129.946 298.382, 129.150 298.175, 127.500 298.195 C 125.850 298.215, 125.296 298.439, 126.269 298.693 M 171.269 298.693 C 172.242 298.947, 173.592 298.930, 174.269 298.656 C 174.946 298.382, 174.150 298.175, 172.500 298.195 C 170.850 298.215, 170.296 298.439, 171.269 298.693 M 133.762 299.707 C 135.006 299.946, 136.806 299.937, 137.762 299.687 C 138.718 299.437, 137.700 299.241, 135.500 299.252 C 133.300 299.263, 132.518 299.468, 133.762 299.707 M 162.762 299.707 C 164.006 299.946, 165.806 299.937, 166.762 299.687 C 167.718 299.437, 166.700 299.241, 164.500 299.252 C 162.300 299.263, 161.518 299.468, 162.762 299.707" stroke="none" fill="#f3f3f3" fill-rule="evenodd"/><path d="M 132 1.051 C 72.337 8.479, 21.245 52.612, 5.530 110.295 C -8.416 161.488, 5.192 215.019, 41.864 253.226 C 66.332 278.719, 96.156 293.926, 130.699 298.523 C 208.416 308.867, 281.202 256.520, 297.019 178.908 C 298.108 173.561, 299 167.371, 299 165.152 C 299 162.933, 299.450 160.840, 300 160.500 C 300.569 160.149, 301 155.137, 301 148.882 C 301 141.803, 300.644 138.102, 300 138.500 C 299.395 138.874, 299 137.479, 299 134.966 C 299 132.683, 298.108 126.439, 297.019 121.092 C 290.868 90.912, 277.704 66.563, 255.571 44.429 C 233.346 22.205, 209.158 9.161, 178.565 2.904 C 166.948 0.527, 143.649 -0.400, 132 1.051 M 58 63.298 C 58 63.462, 73.976 84.948, 93.501 111.044 C 113.027 137.140, 128.890 158.795, 128.751 159.165 C 128.613 159.535, 112.638 176.961, 93.250 197.889 C 73.862 218.817, 58 236.179, 58 236.470 C 58 236.762, 61.487 236.989, 65.750 236.976 L 73.500 236.951 104 203.897 C 120.775 185.717, 135.004 170.421, 135.621 169.906 C 136.396 169.258, 144.568 179.446, 162.121 202.943 L 187.500 236.917 214.750 236.958 C 229.738 236.981, 241.985 236.662, 241.966 236.250 C 241.947 235.838, 225.076 213.010, 204.475 185.522 L 167.019 135.544 171.852 130.522 C 174.510 127.760, 188.078 113.125, 202.004 98 C 215.930 82.875, 228.917 68.813, 230.865 66.750 L 234.406 63 226.268 63 L 218.131 63 189.436 94 C 173.653 111.050, 160.402 125, 159.988 125 C 159.573 125, 148.779 111.050, 136 94 L 112.765 63 85.383 63 C 70.322 63, 58 63.134, 58 63.298 M 82.700 76.359 C 83.140 77.106, 108.250 110.844, 138.500 151.330 L 193.500 224.943 205.833 224.971 C 213.403 224.989, 218.038 224.624, 217.833 224.027 C 217.650 223.492, 192.600 189.742, 162.167 149.027 L 106.835 75 94.368 75 C 84.135 75, 82.044 75.244, 82.700 76.359 M 0.378 150 C 0.378 156.325, 0.541 158.912, 0.739 155.750 C 0.937 152.588, 0.937 147.412, 0.739 144.250 C 0.541 141.088, 0.378 143.675, 0.378 150" stroke="none" fill="#050505" fill-rule="evenodd"/></svg>